<svg width="141" height="40" viewBox="0 0 141 40" fill="none" xmlns="http://www.w3.org/2000/svg">
<path d="M0 8.33036L30.7582 0V30.7582L0 39.0886V8.33036Z" fill="white"/>
<path d="M54.2106 15.1367C54.1078 14.1753 53.6748 13.4267 52.9116 12.891C52.1557 12.3552 51.1722 12.0874 49.9613 12.0874C49.11 12.0874 48.3797 12.2158 47.7706 12.4727C47.1615 12.7295 46.6954 13.0781 46.3725 13.5185C46.0496 13.9588 45.8845 14.4615 45.8771 15.0266C45.8771 15.4963 45.9835 15.9036 46.1964 16.2486C46.4165 16.5935 46.7138 16.8871 47.0881 17.1293C47.4624 17.3641 47.877 17.5623 48.332 17.7237C48.7871 17.8852 49.2457 18.021 49.7081 18.131L51.8217 18.6594C52.6731 18.8576 53.4914 19.1255 54.2766 19.4631C55.0692 19.8007 55.7775 20.2263 56.4013 20.7401C57.0324 21.2538 57.5315 21.8739 57.8984 22.6005C58.2654 23.3271 58.4489 24.1784 58.4489 25.1545C58.4489 26.4755 58.1113 27.6387 57.4361 28.6442C56.7609 29.6423 55.7848 30.4239 54.5078 30.989C53.2382 31.5468 51.7006 31.8256 49.8952 31.8256C48.1412 31.8256 46.6184 31.5541 45.3267 31.011C44.0424 30.4679 43.0369 29.6753 42.3104 28.6332C41.5911 27.591 41.2022 26.3214 41.1435 24.8242H45.1616C45.2203 25.6095 45.4625 26.2627 45.8881 26.7837C46.3138 27.3048 46.8679 27.6938 47.5504 27.9506C48.2403 28.2075 49.0109 28.3359 49.8622 28.3359C50.7502 28.3359 51.5282 28.2038 52.196 27.9396C52.8712 27.6681 53.3996 27.2938 53.7812 26.8168C54.1629 26.3324 54.3574 25.7673 54.3647 25.1214C54.3574 24.5343 54.1849 24.05 53.8473 23.6683C53.5097 23.2794 53.0363 22.9564 52.4272 22.6996C51.8254 22.4354 51.1209 22.2005 50.3136 21.995L47.7486 21.3345C45.8918 20.8575 44.424 20.1346 43.3452 19.1658C42.2737 18.1897 41.7379 16.8944 41.7379 15.2798C41.7379 13.9515 42.0975 12.7882 42.8168 11.7901C43.5433 10.792 44.5304 10.0178 45.7781 9.46733C47.0257 8.90956 48.4384 8.63068 50.0163 8.63068C51.6162 8.63068 53.018 8.90956 54.2216 9.46733C55.4325 10.0178 56.3829 10.7847 57.0728 11.7681C57.7627 12.7442 58.1186 13.8671 58.1406 15.1367H54.2106ZM65.5541 8.93892V31.4844H61.4699V8.93892H65.5541ZM69.3568 31.4844V8.93892H73.4409V28.0607H83.3706V31.4844H69.3568ZM90.0383 31.4844H85.6789L93.616 8.93892H98.6579L106.606 31.4844H102.247L96.225 13.5625H96.0489L90.0383 31.4844ZM90.1814 22.6445H102.071V25.9251H90.1814V22.6445ZM111.234 31.7266C110.567 31.7266 109.994 31.4917 109.517 31.022C109.04 30.5523 108.805 29.9799 108.813 29.3047C108.805 28.6442 109.04 28.0791 109.517 27.6094C109.994 27.1397 110.567 26.9048 111.234 26.9048C111.88 26.9048 112.442 27.1397 112.919 27.6094C113.403 28.0791 113.649 28.6442 113.656 29.3047C113.649 29.7524 113.532 30.1597 113.304 30.5266C113.084 30.8936 112.79 31.1871 112.423 31.4073C112.064 31.6201 111.667 31.7266 111.234 31.7266ZM122.016 31.8256C120.945 31.8256 119.98 31.6348 119.121 31.2532C118.27 30.8642 117.595 30.2918 117.096 29.5359C116.604 28.7799 116.358 27.8479 116.358 26.7397C116.358 25.7856 116.534 24.9967 116.887 24.3729C117.239 23.7491 117.719 23.25 118.329 22.8757C118.938 22.5014 119.624 22.2189 120.387 22.0281C121.158 21.8299 121.954 21.6868 122.776 21.5987C123.767 21.496 124.57 21.4042 125.187 21.3235C125.803 21.2354 126.251 21.1033 126.53 20.9272C126.816 20.7437 126.959 20.4612 126.959 20.0795V20.0135C126.959 19.1842 126.713 18.542 126.222 18.087C125.73 17.632 125.022 17.4045 124.097 17.4045C123.121 17.4045 122.347 17.6173 121.774 18.043C121.209 18.4686 120.828 18.9714 120.629 19.5511L116.909 19.0227C117.202 17.9953 117.686 17.1366 118.362 16.4467C119.037 15.7495 119.862 15.2285 120.839 14.8835C121.815 14.5312 122.893 14.3551 124.075 14.3551C124.89 14.3551 125.701 14.4505 126.508 14.6413C127.315 14.8321 128.053 15.1477 128.721 15.5881C129.389 16.0211 129.924 16.6119 130.328 17.3604C130.739 18.109 130.944 19.0447 130.944 20.1676V31.4844H127.113V29.1616H126.981C126.739 29.6313 126.398 30.0716 125.958 30.4826C125.525 30.8862 124.978 31.2128 124.317 31.4624C123.664 31.7045 122.897 31.8256 122.016 31.8256ZM123.051 28.8974C123.851 28.8974 124.545 28.7396 125.132 28.424C125.719 28.1011 126.17 27.6754 126.486 27.147C126.809 26.6186 126.97 26.0425 126.97 25.4187V23.4261C126.846 23.5289 126.633 23.6243 126.332 23.7124C126.038 23.8004 125.708 23.8775 125.341 23.9435C124.974 24.0096 124.611 24.0683 124.251 24.1197C123.892 24.171 123.58 24.2151 123.315 24.2518C122.721 24.3325 122.189 24.4646 121.719 24.6481C121.25 24.8316 120.879 25.0884 120.607 25.4187C120.336 25.7416 120.2 26.1599 120.2 26.6737C120.2 27.4076 120.468 27.9616 121.004 28.3359C121.539 28.7102 122.222 28.8974 123.051 28.8974ZM134.331 31.4844V14.5753H138.317V31.4844H134.331ZM136.335 12.1754C135.704 12.1754 135.161 11.9663 134.706 11.5479C134.251 11.1223 134.023 10.6122 134.023 10.0178C134.023 9.41596 134.251 8.90589 134.706 8.48757C135.161 8.06191 135.704 7.84908 136.335 7.84908C136.974 7.84908 137.517 8.06191 137.964 8.48757C138.419 8.90589 138.647 9.41596 138.647 10.0178C138.647 10.6122 138.419 11.1223 137.964 11.5479C137.517 11.9663 136.974 12.1754 136.335 12.1754Z" fill="white"/>
</svg>
